<svg width="48" height="48" viewBox="0 0 48 48" fill="none" xmlns="http://www.w3.org/2000/svg">
<g id="Icons">
<path id="Vector" d="M42.6705 24.1577L34.5 20.0747V10.5002C34.4999 10.2217 34.4222 9.94873 34.2757 9.71189C34.1292 9.47504 33.9196 9.28366 33.6705 9.15918L24.6705 4.65918C24.4623 4.55514 24.2327 4.50098 24 4.50098C23.7673 4.50098 23.5377 4.55514 23.3295 4.65918L14.3295 9.15918C14.0804 9.28366 13.8708 9.47504 13.7243 9.71189C13.5778 9.94873 13.5001 10.2217 13.5 10.5002V20.0732L5.3295 24.1577C5.08015 24.2823 4.87045 24.4739 4.72393 24.711C4.57741 24.9482 4.49987 25.2214 4.5 25.5002V36.0002C4.50015 36.2787 4.57782 36.5516 4.72433 36.7885C4.87083 37.0253 5.08038 37.2167 5.3295 37.3412L14.3295 41.8412C14.5377 41.9451 14.7673 41.9992 15 41.9992C15.2327 41.9992 15.4623 41.9451 15.6705 41.8412L24 37.6787L32.3295 41.8442C32.5377 41.9481 32.7673 42.0022 33 42.0022C33.2327 42.0022 33.4623 41.9481 33.6705 41.8442L42.6705 37.3442C42.9201 37.2195 43.1299 37.0276 43.2765 36.7902C43.423 36.5528 43.5004 36.2792 43.5 36.0002V25.5002C43.5001 25.2214 43.4226 24.9482 43.2761 24.711C43.1295 24.4739 42.9198 24.2823 42.6705 24.1577ZM31.5 20.0747L25.5 23.0747V15.9287L31.5 12.9287V20.0747ZM24 7.67868L29.646 10.5002L24 13.3232L18.354 10.5002L24 7.67868ZM16.5 12.9287L22.5 15.9287V23.0747L16.5 20.0747V12.9287ZM13.5 38.0732L7.5 35.0732V27.9272L13.5 30.9272V38.0732ZM15 28.3232L9.354 25.5002L15 22.6772L20.646 25.5002L15 28.3232ZM16.5 30.9272L22.5 27.9272V35.0732L16.5 38.0732V30.9272ZM31.5 38.0732L25.5 35.0732V27.9272L31.5 30.9272V38.0732ZM33 28.3232L27.354 25.5002L33 22.6772L38.646 25.5002L33 28.3232ZM40.5 35.0732L34.5 38.0732V30.9272L40.5 27.9272V35.0732Z" fill="#424848"/>
</g>
</svg>
