<svg width="24" height="24" viewBox="0 0 24 24" fill="none" xmlns="http://www.w3.org/2000/svg">
<g id="Icons">
<path id="Vector" d="M18.6581 1.17158L18.3288 0.496582L17.6553 0.826582C14.7798 2.22908 13.5723 5.69933 14.9778 8.57933L15.0198 8.66558C14.3059 10.4333 13.0973 11.9577 11.5391 13.0561L10.8453 11.6288C11.7372 11.1496 12.4092 10.3439 12.7206 9.38042C13.0319 8.41694 12.9584 7.37038 12.5156 6.45983L10.8303 2.99558L10.1561 3.32333C9.22137 3.77825 8.50568 4.58583 8.16642 5.56843C7.82717 6.55102 7.89215 7.62814 8.34706 8.56283L9.49981 10.9328C9.50656 10.9523 9.51481 10.9718 9.52381 10.9906L10.7913 13.5976C9.17412 14.8737 7.95612 16.5862 7.28131 18.5326L7.08931 19.0876L6.36631 17.6003C7.46781 17.018 8.30011 16.0307 8.68769 14.8465C9.07527 13.6624 8.98783 12.374 8.44381 11.2531L6.37381 7.00658L5.69881 7.33658C3.31981 8.49908 2.32231 11.3693 3.48706 13.7543L5.20006 17.2681C5.20756 17.2913 5.21656 17.3146 5.22781 17.3371L6.66931 20.3026L6.01381 22.2001L6.86881 22.4926L7.62406 20.3123L10.4741 20.6093C10.4923 20.6109 10.5105 20.6114 10.5288 20.6108L13.9308 20.9663C14.5582 21.0324 15.1925 20.9742 15.7975 20.7951C16.4024 20.616 16.9661 20.3194 17.4564 19.9223C17.9466 19.5252 18.3539 19.0354 18.6548 18.4809C18.9557 17.9264 19.1444 17.318 19.2101 16.6906L19.2881 15.9443L14.5893 15.4546C13.3482 15.3238 12.1048 15.6814 11.1228 16.4515C10.1407 17.2216 9.497 18.3438 9.32806 19.5803L7.92781 19.4341L8.13631 18.8326C8.72292 17.1496 9.75289 15.656 11.1176 14.5096L13.5423 14.7668V14.7683L14.0126 14.8171L14.3928 14.8576C14.3995 14.8582 14.4063 14.8587 14.4131 14.8591L17.3808 15.1688C19.5303 15.3908 21.4623 13.8338 21.6851 11.6798L21.7623 10.9343L17.9298 10.5346H17.9276C15.8223 10.3081 13.9451 11.8006 13.6428 13.8683L12.1901 13.7131C13.8402 12.5138 15.117 10.8717 15.8726 8.97683L15.9798 8.92433C18.8643 7.52108 20.0628 4.04933 18.6573 1.17158H18.6581ZM16.0533 7.12658C16.045 7.12352 16.0365 7.12102 16.0278 7.11908C15.8161 6.2961 15.8526 5.4289 16.1326 4.62659C16.4126 3.82428 16.9236 3.12268 17.6013 2.61008C17.8185 3.43162 17.7873 4.29908 17.5118 5.10293C17.2363 5.90678 16.7288 6.61097 16.0533 7.12658ZM9.69631 7.90733C9.47278 7.44818 9.40007 6.93013 9.48856 6.42718C9.57705 5.92423 9.82223 5.46211 10.1891 5.10683L11.1671 7.11533C11.3904 7.57444 11.4628 8.09243 11.3739 8.59518C11.285 9.09794 11.0393 9.55968 10.6721 9.91433L9.69631 7.90733ZM4.83481 13.0958C4.50857 12.4262 4.41862 11.666 4.57959 10.9387C4.74056 10.2115 5.14297 9.56019 5.72131 9.09083L7.09381 11.9071C7.41882 12.577 7.50826 13.3378 7.34765 14.0649C7.18704 14.792 6.78578 15.4436 6.20881 15.9143L4.83556 13.0966L4.83481 13.0958ZM17.5361 13.6771L15.3123 13.4446C15.5192 12.9788 15.8683 12.5906 16.3097 12.3358C16.751 12.081 17.2618 11.9726 17.7686 12.0263H17.7708L19.9976 12.2588C19.7887 12.7241 19.4383 13.1117 18.9964 13.3662C18.5544 13.6207 18.0433 13.73 17.5361 13.6771ZM10.9653 19.1476C11.2102 18.4431 11.6861 17.8421 12.3157 17.4424C12.9453 17.0426 13.6916 16.8675 14.4333 16.9456L17.5548 17.2711C17.31 17.9756 16.8341 18.5765 16.2044 18.9763C15.5748 19.3761 14.8285 19.5511 14.0868 19.4731L10.9653 19.1476Z" fill="#22DEAB"/>
</g>
</svg>
